<!-- 
  © Newspaper Reports 2001 - 2025
  This SVG file is protected by copyright.
  Unauthorized use, copying or redistribution is strictly prohibited.
-->
<!-- cloud.svg -->
<svg version="1.0" xmlns="http://www.w3.org/2000/svg"
 width="" height="" viewBox="0 0 19 19">
<metadata>
Created by AS - NPR 3.0, written by Newspaper Reports 2001-2025
</metadata>
<g transform="translate(0.000000,300.000000) scale(0.100000,-0.100000)"
fill="#000000" stroke="none">
<path d="M1353 2480 c27 -265 39 -373 46 -420 5 -30 7 -57 5 -59 -11 -12 -24
24 -42 124 -12 61 -30 159 -42 219 -19 103 -30 140 -30 103 0 -30 51 -331 66
-391 15 -56 13 -79 -5 -60 -5 5 -39 115 -76 244 -56 199 -85 281 -85 247 0
-12 117 -429 130 -461 6 -17 7 -33 2 -38 -5 -5 -19 17 -32 54 -12 35 -51 135
-86 223 -34 88 -68 173 -74 189 -6 16 -13 26 -16 23 -3 -3 36 -115 86 -248 84
-225 90 -245 74 -256 -10 -7 -20 -13 -23 -13 -3 0 -28 47 -54 103 -57 123
-127 250 -133 244 -3 -2 32 -78 76 -168 81 -166 88 -183 70 -194 -10 -6 -16 2
-100 155 -30 55 -58 100 -62 100 -7 0 85 -182 119 -239 10 -16 12 -26 5 -33
-11 -11 -21 8 -176 320 -44 89 -84 162 -88 162 -4 0 18 -53 49 -117 30 -65 70
-150 88 -188 19 -39 49 -98 69 -132 19 -35 31 -65 26 -68 -9 -6 -32 28 -148
214 -111 180 -224 352 -229 347 -4 -4 99 -173 289 -476 55 -87 66 -110 51
-109 -4 0 -82 99 -172 220 -90 121 -166 218 -169 215 -2 -3 0 -11 5 -18 42
-53 313 -428 313 -432 0 -25 -50 23 -210 204 -101 115 -186 207 -189 205 -2
-2 11 -21 28 -42 55 -66 215 -276 265 -345 43 -61 51 -88 26 -88 -8 0 -159
161 -258 274 -23 27 -44 47 -47 44 -5 -5 99 -129 225 -268 41 -46 70 -81 64
-79 -7 2 -101 82 -210 177 -108 94 -201 172 -205 172 -9 0 64 -69 259 -244 72
-65 132 -122 132 -125 -1 -38 -29 -22 -224 136 -114 93 -218 174 -229 182 -43
26 91 -93 232 -207 79 -65 155 -127 170 -139 14 -12 23 -24 19 -28 -4 -4 -98
54 -209 130 -111 75 -209 139 -218 142 -23 8 134 -108 279 -205 119 -80 145
-102 120 -102 -10 0 -251 132 -454 249 -49 28 -94 50 -98 49 -9 -3 310 -193
465 -277 42 -23 77 -47 77 -52 0 -15 -17 -11 -71 16 -95 48 -413 185 -423 182
-10 -3 448 -217 465 -217 5 0 9 -9 9 -20 0 -11 -2 -20 -5 -20 -11 0 -205 74
-332 128 -79 33 -143 56 -143 52 0 -14 297 -143 415 -180 51 -16 57 -19 50
-30 -3 -5 -36 0 -73 11 -140 41 -455 120 -460 115 -7 -7 -12 -6 268 -81 135
-37 249 -71 254 -76 22 -20 -29 -18 -149 6 -70 14 -130 24 -132 21 -7 -6 209
-56 245 -56 18 0 32 -4 32 -10 0 -5 -1 -10 -2 -10 -16 0 -184 36 -279 60 -67
17 -124 29 -127 26 -2 -3 6 -10 19 -15 37 -14 332 -81 357 -81 13 0 22 -6 22
-15 0 -19 14 -20 -254 15 -250 33 -258 33 -236 21 8 -5 107 -21 220 -35 285
-38 271 -36 264 -48 -6 -10 -305 -6 -539 7 -60 3 -71 2 -45 -4 28 -8 431 -31
527 -31 15 0 23 -5 20 -12 -2 -9 -27 -13 -73 -13 -100 -1 -313 -16 -359 -26
-26 -6 4 -7 88 -4 l128 5 -40 -34 c-36 -31 -48 -34 -151 -46 -61 -8 -113 -17
-116 -22 -6 -10 -10 -10 111 6 55 7 101 13 103 11 1 -1 -4 -18 -13 -37 -11
-28 -21 -37 -49 -42 -20 -4 -38 -12 -42 -18 -5 -8 -1 -9 10 -5 10 4 29 10 44
14 21 5 24 3 19 -11 -4 -10 -7 -21 -7 -26 0 -4 -14 -13 -30 -20 -102 -42 -170
-144 -170 -254 0 -118 59 -218 154 -262 l51 -24 1017 0 c1000 0 1018 0 1072
20 195 74 252 343 103 492 -47 48 -111 77 -185 84 -40 5 -63 12 -67 22 -3 8
-4 16 -2 18 2 2 43 -8 91 -22 48 -14 93 -23 99 -21 6 2 -35 17 -92 33 -84 24
-107 34 -123 58 l-21 28 29 -6 c16 -3 81 -13 144 -21 63 -8 130 -18 148 -21
19 -3 32 -1 32 6 0 5 -11 10 -24 10 -13 0 -97 11 -187 25 -127 20 -171 31
-203 51 l-41 26 45 -6 c82 -10 346 -16 320 -7 -14 4 -98 11 -185 15 -225 10
-289 17 -274 30 2 2 128 9 279 15 302 13 306 13 317 25 4 5 -19 6 -52 3 -33
-4 -169 -10 -302 -13 -180 -5 -243 -4 -243 5 0 6 2 11 4 11 21 0 414 57 455
66 13 3 21 7 19 10 -3 2 -110 -9 -238 -26 -128 -17 -235 -28 -238 -25 -12 11
15 22 98 39 113 23 263 66 275 78 7 7 3 8 -10 4 -53 -15 -350 -86 -362 -86 -7
0 -13 4 -13 9 0 4 22 11 49 14 56 7 213 48 207 54 -2 3 -59 -7 -126 -22 -85
-19 -125 -24 -133 -16 -14 14 1 19 265 92 263 72 252 68 246 74 -6 6 -289 -64
-421 -104 -53 -16 -100 -25 -103 -20 -3 5 3 12 13 15 108 34 434 175 416 181
-5 2 -63 -19 -129 -48 -135 -58 -291 -119 -305 -119 -5 0 -9 9 -9 20 0 11 5
20 11 20 21 0 514 231 533 250 17 17 2 12 -100 -36 -220 -104 -449 -202 -457
-197 -4 3 52 39 125 82 103 59 297 176 327 198 2 2 2 5 -1 8 -3 3 -45 -19 -94
-48 -102 -62 -352 -206 -362 -210 -4 -1 -7 3 -7 8 0 6 60 52 135 104 181 126
352 253 346 258 -2 2 -87 -54 -187 -124 -273 -191 -308 -215 -319 -208 -6 4
13 24 42 45 76 58 329 282 323 288 -2 3 -39 -25 -82 -62 -224 -193 -295 -247
-309 -235 -8 7 -13 15 -12 18 2 4 93 89 203 190 110 101 202 189 204 195 2 6
-9 0 -25 -14 -82 -72 -224 -199 -304 -272 -50 -44 -93 -78 -97 -75 -3 4 34 50
84 104 150 165 216 243 211 248 -3 3 -45 -38 -93 -92 -153 -170 -216 -234
-225 -231 -4 2 25 48 66 103 101 137 167 235 162 240 -2 2 -55 -66 -118 -151
-129 -175 -133 -179 -148 -161 -8 9 4 34 45 97 30 47 61 100 69 119 9 18 52
80 96 138 44 57 78 106 75 109 -4 5 -288 -348 -333 -415 -2 -1 -7 0 -13 4 -7
4 3 27 27 63 82 122 234 373 230 378 -3 3 -68 -92 -144 -210 -79 -123 -142
-212 -147 -207 -5 5 2 25 15 47 14 22 66 120 117 219 52 99 112 213 134 254
22 41 36 71 29 67 -15 -9 -89 -143 -252 -451 -56 -107 -66 -122 -76 -113 -3 3
5 26 17 50 38 74 189 441 184 446 -5 6 -23 -33 -140 -303 -86 -199 -82 -191
-92 -181 -4 3 15 59 41 124 61 148 62 149 48 137 -6 -5 -33 -62 -61 -125 -29
-67 -56 -116 -65 -118 -9 -2 -16 3 -16 11 0 8 34 92 75 186 68 156 94 230 63
176 -20 -35 -135 -290 -148 -329 -7 -22 -16 -34 -21 -29 -5 5 25 109 71 248
44 132 79 246 78 254 -3 14 -138 -363 -160 -445 -7 -26 -18 -44 -26 -44 -9 0
-12 6 -7 18 10 25 115 471 114 485 -1 26 -23 -49 -75 -258 -64 -257 -62 -251
-73 -239 -5 5 2 78 14 164 13 85 26 189 29 230 l5 75 -14 -65 c-7 -36 -24
-139 -36 -230 -12 -91 -24 -167 -26 -169 -2 -3 -7 0 -12 5 -8 8 17 386 33 492
3 17 1 32 -5 32 -5 0 -9 -10 -10 -22 0 -13 -2 -32 -4 -43 -2 -11 -11 -108 -20
-215 -18 -218 -21 -240 -35 -240 -6 0 -10 62 -11 158 0 86 -4 175 -8 197 -6
27 -9 -25 -10 -157 -1 -191 -2 -198 -21 -198 -17 0 -20 7 -20 44 0 25 -4 48
-10 51 -6 4 -10 -15 -10 -50 0 -75 -15 -62 -24 19 -7 74 -8 83 -36 295 -11 85
-23 157 -26 160 -4 3 -4 -19 -1 -49z m607 -545 c-47 -70 -69 -94 -57 -61 6 16
98 136 104 136 2 0 -19 -34 -47 -75z m-290 23 c99 -31 188 -85 267 -164 109
-109 183 -277 183 -416 0 -34 -3 -38 -25 -38 -17 0 -25 6 -25 18 0 30 -57 118
-102 157 -137 120 -335 119 -468 -2 -38 -33 -42 -35 -70 -23 -51 21 -143 9
-193 -26 l-42 -30 -40 18 c-64 28 -188 25 -251 -7 -27 -14 -50 -25 -52 -25 -4
0 8 51 30 120 39 127 139 259 252 336 57 39 153 80 216 93 30 6 64 13 75 15
39 9 181 -7 245 -26z m-662 -67 c23 -28 38 -52 33 -55 -4 -3 -25 19 -45 49
-20 30 -35 55 -33 55 2 0 23 -22 45 -49z m856 -371 c57 -29 130 -106 146 -156
7 -19 10 -37 8 -38 -1 -1 -21 -12 -44 -23 -41 -21 -41 -21 -84 -2 -23 10 -61
19 -84 19 -46 0 -106 -31 -106 -55 0 -18 8 -18 40 0 38 22 82 18 120 -10 19
-14 46 -25 61 -25 16 0 44 -14 69 -35 38 -32 70 -45 70 -29 0 3 -13 26 -30 50
l-30 45 28 11 c43 18 171 15 210 -5 39 -21 88 -87 96 -128 3 -16 9 -41 12 -56
4 -20 17 -34 47 -48 42 -20 55 -42 72 -118 7 -34 21 -28 30 13 10 44 -3 85
-36 121 -16 18 -28 33 -27 35 9 8 85 -18 126 -43 127 -78 148 -248 46 -362
-82 -91 -22 -86 -913 -89 -528 -2 -788 1 -795 8 -5 5 -27 10 -48 10 -43 0
-102 22 -131 48 -11 9 -28 34 -38 55 -11 20 -26 37 -34 37 -21 0 7 -74 46
-122 l30 -38 -126 0 c-136 0 -167 8 -223 55 -118 99 -98 306 36 374 l38 19 11
-29 c11 -27 38 -48 49 -36 3 3 0 32 -7 65 -11 53 -10 65 5 106 31 82 84 127
168 143 l33 6 -21 -24 c-38 -42 -57 -88 -43 -105 18 -22 28 -17 50 31 30 63
63 79 162 76 46 -1 77 3 77 8 0 12 -53 41 -75 41 -24 0 -18 17 18 44 51 39
101 56 162 56 63 0 118 -20 144 -51 l17 -21 28 37 c32 41 95 74 141 75 l30 0
-27 -23 c-31 -26 -48 -57 -48 -88 0 -20 3 -19 35 14 35 36 56 46 106 50 15 1
38 17 58 39 35 40 85 75 129 89 52 16 163 5 216 -21z"/>
<path d="M1092 1271 c2 -7 7 -12 11 -12 12 1 9 15 -3 20 -7 2 -11 -2 -8 -8z"/>
<path d="M1810 1191 c0 -9 24 -21 41 -21 6 0 7 5 4 10 -4 6 -11 8 -16 5 -5 -4
-9 -1 -9 4 0 6 -4 11 -10 11 -5 0 -10 -4 -10 -9z"/>
<path d="M2210 1109 c0 -5 -4 -7 -10 -4 -5 3 -10 1 -10 -4 0 -13 3 -13 24 -5
18 7 22 24 6 24 -5 0 -10 -5 -10 -11z"/>
<path d="M567 1049 c-10 -11 -16 -24 -13 -27 6 -6 35 27 36 41 0 11 -4 9 -23
-14z"/>
<path d="M576 993 c-11 -11 -6 -23 9 -23 8 0 15 4 15 9 0 13 -16 22 -24 14z"/>
<path d="M415 889 c-10 -15 3 -25 16 -12 7 7 7 13 1 17 -6 3 -14 1 -17 -5z"/>
<path d="M2596 892 c-3 -6 -1 -14 5 -17 15 -10 25 3 12 16 -7 7 -13 7 -17 1z"/>
<path d="M367 874 c-8 -8 1 -24 14 -24 5 0 9 7 9 15 0 15 -12 20 -23 9z"/>
<path d="M386 832 c-3 -6 -1 -14 5 -17 15 -10 25 3 12 16 -7 7 -13 7 -17 1z"/>
<path d="M2583 793 c-21 -8 -15 -22 7 -16 11 3 20 9 20 14 0 10 -8 10 -27 2z"/>
<path d="M360 771 c0 -12 5 -21 10 -21 6 0 10 6 10 14 0 8 -4 18 -10 21 -5 3
-10 -3 -10 -14z"/>
<path d="M420 680 c0 -5 7 -10 15 -10 8 0 15 5 15 10 0 6 -7 10 -15 10 -8 0
-15 -4 -15 -10z"/>
</g>
</svg>
